<svg width="24" height="24" viewBox="0 0 24 24" fill="none" xmlns="http://www.w3.org/2000/svg">
<path d="M4.79999 18.6998C4.36665 18.6998 4.00832 18.5581 3.72499 18.2748C3.44165 17.9915 3.29999 17.6331 3.29999 17.1998V6.7998C3.29999 6.36647 3.44165 6.00814 3.72499 5.7248C4.00832 5.44147 4.36665 5.2998 4.79999 5.2998H19.2C19.6333 5.2998 19.9917 5.44147 20.275 5.7248C20.5583 6.00814 20.7 6.36647 20.7 6.7998V17.1998C20.7 17.6331 20.5583 17.9915 20.275 18.2748C19.9917 18.5581 19.6333 18.6998 19.2 18.6998H4.79999ZM12.225 11.6623C12.2917 11.6373 12.3583 11.6081 12.425 11.5748L19.7 6.7498C19.7833 6.6998 19.8333 6.62897 19.85 6.5373C19.8667 6.44564 19.85 6.35814 19.8 6.2748C19.7667 6.20814 19.7 6.1623 19.6 6.1373C19.5 6.1123 19.4083 6.1248 19.325 6.1748L12 10.9998L4.67499 6.1748C4.59165 6.1248 4.50415 6.10397 4.41249 6.1123C4.32082 6.12064 4.24999 6.16647 4.19999 6.2498C4.14999 6.33314 4.13332 6.4248 4.14999 6.5248C4.16665 6.6248 4.21665 6.6998 4.29999 6.7498L11.575 11.5748C11.6417 11.6081 11.7083 11.6373 11.775 11.6623C11.8417 11.6873 11.9167 11.6998 12 11.6998C12.0833 11.6998 12.1583 11.6873 12.225 11.6623Z" fill="#FFFAF0"/>
</svg>
