<svg width="33" height="40" viewBox="0 0 33 40" fill="none" xmlns="http://www.w3.org/2000/svg">
<path d="M16.5 40C16.0646 39.9986 15.6326 39.9248 15.2218 39.7814C14.7951 39.6347 14.4025 39.4043 14.0672 39.104C12.1069 37.3103 10.2729 35.4632 8.56511 33.5629C6.94297 31.7722 5.45412 29.8668 4.11031 27.8617C2.91569 26.0885 1.91214 24.1956 1.11625 22.2139C0.410758 20.4967 0.0363996 18.6631 0.0126278 16.8087C-0.0771041 14.5548 0.312177 12.3074 1.15513 10.2128C1.99809 8.11826 3.2758 6.22349 4.90511 4.65182C6.43119 3.15254 8.24209 1.96933 10.2326 1.17098C12.2231 0.372624 14.3535 -0.0249971 16.5 0.00125315C18.6464 -0.0253476 20.7766 0.371784 22.7671 1.16967C24.7576 1.96756 26.5685 3.15026 28.0948 4.64906C29.7242 6.22072 31.0019 8.11566 31.8449 10.2102C32.6878 12.3048 33.0771 14.5522 32.9874 16.8061C32.9642 18.6571 32.5898 20.4873 31.8838 22.2006C31.086 24.1793 30.0863 26.0718 28.9004 27.8484C27.5662 29.8575 26.0806 31.7633 24.4564 33.5495C22.7485 35.4428 20.9145 37.2864 18.9543 39.0801C18.6185 39.3837 18.225 39.6176 17.797 39.7681C17.3813 39.919 16.9426 39.9975 16.5 40ZM16.5 20.3152C17.0192 20.3229 17.5345 20.2247 18.014 20.0265C18.4934 19.8284 18.9268 19.5345 19.2873 19.1632C19.66 18.8041 19.955 18.3731 20.154 17.8967C20.353 17.4203 20.4519 16.9084 20.4446 16.3927C20.4523 15.877 20.3533 15.3654 20.1538 14.8893C19.9542 14.4132 19.6584 13.9828 19.2846 13.6249C18.9229 13.2547 18.4889 12.9618 18.0091 12.7642C17.5293 12.5666 17.014 12.4682 16.4946 12.4755C15.9754 12.4678 15.4601 12.5662 14.9806 12.7644C14.5012 12.9625 14.0678 13.2562 13.7073 13.6275C13.3346 13.9866 13.0397 14.4178 12.8407 14.8942C12.6416 15.3706 12.5427 15.8823 12.55 16.398C12.5423 16.9137 12.6413 17.4255 12.8409 17.9016C13.0404 18.3777 13.3362 18.808 13.71 19.166C14.0718 19.537 14.5062 19.8305 14.9864 20.0286C15.4667 20.2267 15.9827 20.3252 16.5027 20.318L16.5 20.3152Z" fill="#C93618"/>
</svg>
