<svg width="24" height="24" viewBox="0 0 24 24" fill="none" xmlns="http://www.w3.org/2000/svg">
<path d="M17.782 5.5H6.217C6.12276 5.5 6.02944 5.51858 5.94239 5.55467C5.85533 5.59077 5.77624 5.64367 5.70965 5.71036C5.64306 5.77704 5.59027 5.8562 5.55429 5.94331C5.51832 6.03042 5.49987 6.12376 5.5 6.218V17.783C5.5 17.8772 5.51858 17.9706 5.55467 18.0576C5.59077 18.1447 5.64367 18.2238 5.71036 18.2903C5.77704 18.3569 5.8562 18.4097 5.94331 18.4457C6.03042 18.4817 6.12376 18.5001 6.218 18.5H12.444V13.473H10.756V11.5H12.444V10.057C12.4095 9.71386 12.4506 9.36734 12.5642 9.04173C12.6779 8.71613 12.8614 8.41933 13.1019 8.17216C13.3424 7.92499 13.634 7.73344 13.9564 7.61093C14.2788 7.48842 14.624 7.43793 14.968 7.463C15.4737 7.46109 15.9791 7.48679 16.482 7.54V9.3H15.448C14.633 9.3 14.475 9.687 14.475 10.256V11.5H16.424L16.17 13.473H14.476V18.5H17.783C17.9732 18.5 18.1555 18.4245 18.29 18.29C18.4245 18.1555 18.5 17.9732 18.5 17.783V6.217C18.5 6.12276 18.4814 6.02944 18.4453 5.94239C18.4092 5.85533 18.3563 5.77624 18.2896 5.70965C18.223 5.64306 18.1438 5.59027 18.0567 5.55429C17.9696 5.51832 17.8762 5.49987 17.782 5.5Z" fill="#FFFAF0"/>
</svg>
