<svg width="24" height="24" viewBox="0 0 24 24" fill="none" xmlns="http://www.w3.org/2000/svg">
<path d="M12 8.99512C11.3655 8.99512 10.7453 9.18327 10.2177 9.53577C9.69018 9.88827 9.279 10.3893 9.03619 10.9755C8.79339 11.5617 8.72986 12.2067 8.85364 12.829C8.97742 13.4513 9.28295 14.0229 9.7316 14.4715C10.1802 14.9202 10.7519 15.2257 11.3741 15.3495C11.9964 15.4733 12.6415 15.4097 13.2276 15.1669C13.8138 14.9241 14.3149 14.5129 14.6674 13.9854C15.0199 13.4578 15.208 12.8376 15.208 12.2031C15.208 11.3523 14.87 10.5363 14.2684 9.93473C13.6668 9.33311 12.8508 8.99512 12 8.99512ZM12 14.8281C11.4808 14.8281 10.9733 14.6742 10.5416 14.3857C10.11 14.0973 9.7735 13.6873 9.57482 13.2077C9.37614 12.728 9.32415 12.2002 9.42544 11.691C9.52672 11.1818 9.77673 10.7141 10.1438 10.347C10.511 9.97986 10.9787 9.72985 11.4879 9.62856C11.9971 9.52728 12.5249 9.57926 13.0045 9.77794C13.4842 9.97662 13.8942 10.3131 14.1826 10.7448C14.471 11.1764 14.625 11.6839 14.625 12.2031C14.625 12.8993 14.3484 13.567 13.8562 14.0593C13.3639 14.5516 12.6962 14.8281 12 14.8281ZM15.208 5.20312H8.792C7.78695 5.20524 6.82367 5.60543 6.11299 6.31611C5.40231 7.02679 5.00211 7.99007 5 8.99512V15.4121C5.00238 16.417 5.40269 17.38 6.11334 18.0905C6.82399 18.801 7.78712 19.201 8.792 19.2031H15.209C16.2139 19.2007 17.1769 18.8004 17.8874 18.0898C18.5978 17.3791 18.9979 16.416 19 15.4111V8.99512C18.9979 7.99007 18.5977 7.02679 17.887 6.31611C17.1763 5.60543 16.2131 5.20524 15.208 5.20312ZM18.416 15.4111C18.4149 16.2616 18.0766 17.077 17.4752 17.6784C16.8738 18.2797 16.0585 18.6181 15.208 18.6191H8.792C7.94151 18.6181 7.12616 18.2797 6.52477 17.6784C5.92338 17.077 5.58506 16.2616 5.584 15.4111V8.99512C5.58506 8.14464 5.92338 7.32928 6.52477 6.72789C7.12616 6.12651 7.94151 5.78818 8.792 5.78712H15.209C16.0595 5.78818 16.8748 6.12651 17.4762 6.72789C18.0776 7.32928 18.4159 8.14464 18.417 8.99512L18.416 15.4111ZM16.374 8.41113C16.374 8.52643 16.3398 8.63915 16.2757 8.73502C16.2117 8.8309 16.1206 8.90562 16.0141 8.94975C15.9076 8.99387 15.7904 9.00542 15.6773 8.98292C15.5642 8.96043 15.4603 8.9049 15.3788 8.82337C15.2972 8.74183 15.2417 8.63796 15.2192 8.52486C15.1967 8.41177 15.2083 8.29455 15.2524 8.18802C15.2965 8.08149 15.3712 7.99044 15.4671 7.92638C15.563 7.86232 15.6757 7.82812 15.791 7.82812C15.8676 7.82799 15.9436 7.84298 16.0144 7.87222C16.0853 7.90145 16.1496 7.94438 16.2039 7.99853C16.2581 8.05268 16.3012 8.11699 16.3305 8.18779C16.3599 8.25859 16.374 8.33448 16.374 8.41113Z" fill="#FFFAF0" stroke="#FFFAF0" stroke-width="0.5"/>
</svg>
