<svg width="118" height="40" viewBox="0 0 118 40" fill="none" xmlns="http://www.w3.org/2000/svg">
<path d="M11.7656 5.83984C11.7656 6.03516 11.7344 6.25 11.6719 6.48438C11.6094 6.71875 11.5078 6.91797 11.3672 7.08203C11.2031 7.27734 11.0195 7.42578 10.8164 7.52734C10.6133 7.62891 10.3086 7.67969 9.90234 7.67969C9.28516 7.67969 8.80078 7.46484 8.44922 7.03516C8.09766 6.60547 7.72266 5.89062 7.32422 4.89062C7.01172 5.02344 6.75781 5.36719 6.5625 5.92188C6.36719 6.47656 6.26953 7.66797 6.26953 9.49609V10.4219H9.50391V11.6875H6.29297V19.7617C6.29297 20.0664 6.36328 20.3047 6.50391 20.4766C6.64453 20.6406 6.82812 20.7617 7.05469 20.8398C7.24219 20.9023 7.48828 20.9648 7.79297 21.0273C8.09766 21.082 8.37109 21.1211 8.61328 21.1445V22H0.703125V21.1445C0.90625 21.1289 1.10156 21.1094 1.28906 21.0859C1.48438 21.0625 1.65625 21.0234 1.80469 20.9688C2.05469 20.875 2.22266 20.7422 2.30859 20.5703C2.40234 20.3906 2.44922 20.1562 2.44922 19.8672V11.6875H0.0703125V10.4219H2.44922C2.44922 9.58594 2.57031 8.77734 2.8125 7.99609C3.05469 7.20703 3.42969 6.50391 3.9375 5.88672C4.42969 5.27734 5.07812 4.78516 5.88281 4.41016C6.6875 4.03516 7.63281 3.84766 8.71875 3.84766C9.6875 3.84766 10.4375 4.03125 10.9688 4.39844C11.5 4.76562 11.7656 5.24609 11.7656 5.83984ZM22.0898 11.7578C22.668 12.2969 23.1094 12.9414 23.4141 13.6914C23.7188 14.4414 23.8711 15.2539 23.8711 16.1289C23.8711 16.9961 23.7188 17.8164 23.4141 18.5898C23.1172 19.3555 22.6797 20.0117 22.1016 20.5586C21.4844 21.1445 20.7461 21.5938 19.8867 21.9062C19.0352 22.2188 18.0586 22.375 16.957 22.375C16.0039 22.375 15.125 22.2383 14.3203 21.9648C13.5234 21.6914 12.8164 21.2812 12.1992 20.7344C11.6055 20.2109 11.1367 19.5664 10.793 18.8008C10.4492 18.0273 10.2773 17.1641 10.2773 16.2109C10.2773 15.2734 10.4258 14.4414 10.7227 13.7148C11.0273 12.9805 11.4805 12.3281 12.082 11.7578C12.6602 11.2109 13.3711 10.7891 14.2148 10.4922C15.0664 10.1875 16.0156 10.0352 17.0625 10.0352C18.1562 10.0352 19.1172 10.1875 19.9453 10.4922C20.7812 10.7891 21.4961 11.2109 22.0898 11.7578ZM19.0898 19.8789C19.2617 19.4414 19.3867 18.9102 19.4648 18.2852C19.5508 17.6602 19.5938 16.9336 19.5938 16.1055C19.5938 15.5586 19.5547 14.9336 19.4766 14.2305C19.3984 13.5273 19.2812 12.9727 19.125 12.5664C18.9375 12.0742 18.6758 11.6875 18.3398 11.4062C18.0117 11.125 17.5938 10.9844 17.0859 10.9844C16.5312 10.9844 16.0859 11.1367 15.75 11.4414C15.4219 11.7461 15.168 12.1406 14.9883 12.625C14.8242 13.0703 14.7109 13.5938 14.6484 14.1953C14.5859 14.7891 14.5547 15.4102 14.5547 16.0586C14.5547 16.9102 14.582 17.6172 14.6367 18.1797C14.6914 18.7344 14.8242 19.293 15.0352 19.8555C15.2148 20.3398 15.4727 20.7227 15.8086 21.0039C16.1445 21.2852 16.5703 21.4258 17.0859 21.4258C17.5547 21.4258 17.957 21.2969 18.293 21.0391C18.6289 20.7734 18.8945 20.3867 19.0898 19.8789ZM37.3477 11.7578C37.9258 12.2969 38.3672 12.9414 38.6719 13.6914C38.9766 14.4414 39.1289 15.2539 39.1289 16.1289C39.1289 16.9961 38.9766 17.8164 38.6719 18.5898C38.375 19.3555 37.9375 20.0117 37.3594 20.5586C36.7422 21.1445 36.0039 21.5938 35.1445 21.9062C34.293 22.2188 33.3164 22.375 32.2148 22.375C31.2617 22.375 30.3828 22.2383 29.5781 21.9648C28.7812 21.6914 28.0742 21.2812 27.457 20.7344C26.8633 20.2109 26.3945 19.5664 26.0508 18.8008C25.707 18.0273 25.5352 17.1641 25.5352 16.2109C25.5352 15.2734 25.6836 14.4414 25.9805 13.7148C26.2852 12.9805 26.7383 12.3281 27.3398 11.7578C27.918 11.2109 28.6289 10.7891 29.4727 10.4922C30.3242 10.1875 31.2734 10.0352 32.3203 10.0352C33.4141 10.0352 34.375 10.1875 35.2031 10.4922C36.0391 10.7891 36.7539 11.2109 37.3477 11.7578ZM34.3477 19.8789C34.5195 19.4414 34.6445 18.9102 34.7227 18.2852C34.8086 17.6602 34.8516 16.9336 34.8516 16.1055C34.8516 15.5586 34.8125 14.9336 34.7344 14.2305C34.6562 13.5273 34.5391 12.9727 34.3828 12.5664C34.1953 12.0742 33.9336 11.6875 33.5977 11.4062C33.2695 11.125 32.8516 10.9844 32.3438 10.9844C31.7891 10.9844 31.3438 11.1367 31.0078 11.4414C30.6797 11.7461 30.4258 12.1406 30.2461 12.625C30.082 13.0703 29.9688 13.5938 29.9062 14.1953C29.8438 14.7891 29.8125 15.4102 29.8125 16.0586C29.8125 16.9102 29.8398 17.6172 29.8945 18.1797C29.9492 18.7344 30.082 19.293 30.293 19.8555C30.4727 20.3398 30.7305 20.7227 31.0664 21.0039C31.4023 21.2852 31.8281 21.4258 32.3438 21.4258C32.8125 21.4258 33.2148 21.2969 33.5508 21.0391C33.8867 20.7734 34.1523 20.3867 34.3477 19.8789ZM55.793 21.7539L50.0156 22.0938L49.8398 21.9297V20.8516L49.7578 20.8281C49.375 21.2422 48.8555 21.6055 48.1992 21.918C47.5508 22.2227 46.8945 22.375 46.2305 22.375C44.6523 22.375 43.3516 21.7891 42.3281 20.6172C41.3047 19.4453 40.793 17.9297 40.793 16.0703C40.793 14.4219 41.3633 13.0078 42.5039 11.8281C43.6523 10.6484 45.0391 10.0586 46.6641 10.0586C47.3047 10.0586 47.9062 10.1328 48.4688 10.2812C49.0312 10.4219 49.4805 10.5898 49.8164 10.7852V6.95312C49.8164 6.66406 49.7578 6.39453 49.6406 6.14453C49.5234 5.88672 49.3672 5.6875 49.1719 5.54688C48.9297 5.375 48.625 5.25391 48.2578 5.18359C47.8984 5.10547 47.5352 5.05078 47.168 5.01953V4.16406L53.4961 3.85938L53.6719 4.04688V19.4102C53.6719 19.707 53.7188 19.957 53.8125 20.1602C53.9141 20.3633 54.0742 20.5234 54.293 20.6406C54.457 20.7266 54.6953 20.7891 55.0078 20.8281C55.3281 20.8672 55.5898 20.8906 55.793 20.8984V21.7539ZM49.8164 19.668V13.0469C49.7617 12.8672 49.6836 12.668 49.582 12.4492C49.4883 12.2305 49.3555 12.0234 49.1836 11.8281C49.0273 11.6641 48.8164 11.5195 48.5508 11.3945C48.293 11.2695 48 11.207 47.6719 11.207C46.8906 11.207 46.25 11.6484 45.75 12.5312C45.25 13.4141 45 14.6602 45 16.2695C45 16.9023 45.043 17.4727 45.1289 17.9805C45.2227 18.4805 45.3828 18.9375 45.6094 19.3516C45.8359 19.7656 46.125 20.0898 46.4766 20.3242C46.8359 20.5586 47.2656 20.6758 47.7656 20.6758C48.2422 20.6758 48.6367 20.5859 48.9492 20.4062C49.2617 20.2188 49.5508 19.9727 49.8164 19.668ZM70.5352 16.2695C70.5352 18.0273 69.9531 19.4844 68.7891 20.6406C67.6328 21.7969 66.1641 22.375 64.3828 22.375C63.6953 22.375 63.1016 22.3242 62.6016 22.2227C62.1094 22.1289 61.6914 22.0117 61.3477 21.8711C60.9883 21.7227 60.6992 21.5781 60.4805 21.4375C60.2695 21.2891 60.1016 21.168 59.9766 21.0742L58.3008 22.5977L57.6094 22.3281C57.6484 21.7578 57.6797 21.1406 57.7031 20.4766C57.7344 19.8047 57.75 18.9023 57.75 17.7695V6.80078C57.75 6.50391 57.6875 6.23047 57.5625 5.98047C57.4453 5.72266 57.2852 5.52734 57.082 5.39453C56.9336 5.30078 56.7148 5.21875 56.4258 5.14844C56.1445 5.07812 55.8828 5.03516 55.6406 5.01953V4.16406L61.4297 3.85938L61.6055 4.04688V11.6641H61.6758C62.2461 11.1094 62.832 10.7031 63.4336 10.4453C64.0352 10.1875 64.6367 10.0586 65.2383 10.0586C66.8789 10.0586 68.1719 10.6172 69.1172 11.7344C70.0625 12.8516 70.5352 14.3633 70.5352 16.2695ZM66.3281 16.4102C66.3281 15.8164 66.2812 15.2461 66.1875 14.6992C66.1016 14.1445 65.9531 13.6562 65.7422 13.2344C65.5312 12.8125 65.2539 12.4766 64.9102 12.2266C64.5664 11.9688 64.1406 11.8398 63.6328 11.8398C63.1562 11.8398 62.7617 11.918 62.4492 12.0742C62.1367 12.2305 61.8555 12.4609 61.6055 12.7656V19.5859C61.6523 19.7422 61.7383 19.9492 61.8633 20.207C61.9961 20.457 62.1289 20.6523 62.2617 20.793C62.4492 20.9961 62.6484 21.1523 62.8594 21.2617C63.0703 21.3633 63.3672 21.4141 63.75 21.4141C64.5469 21.4141 65.1758 20.9805 65.6367 20.1133C66.0977 19.2383 66.3281 18.0039 66.3281 16.4102ZM85.4414 21.7539C85.0977 21.9023 84.6914 22.0391 84.2227 22.1641C83.7539 22.2891 83.2578 22.3516 82.7344 22.3516C81.7734 22.3516 81.0664 22.2109 80.6133 21.9297C80.1602 21.6406 79.8516 21.2305 79.6875 20.6992H79.6172C79.3516 20.9648 79.0938 21.1914 78.8438 21.3789C78.6016 21.5664 78.3398 21.7266 78.0586 21.8594C77.6914 22.0312 77.3359 22.1562 76.9922 22.2344C76.6562 22.3203 76.1836 22.3633 75.5742 22.3633C74.668 22.3633 73.8945 22.0977 73.2539 21.5664C72.6133 21.0273 72.293 20.3164 72.293 19.4336C72.293 18.9258 72.3633 18.4961 72.5039 18.1445C72.6445 17.7852 72.8438 17.4688 73.1016 17.1953C73.3359 16.9453 73.6055 16.7383 73.9102 16.5742C74.2227 16.4102 74.5625 16.2578 74.9297 16.1172C75.6328 15.8594 76.4766 15.5938 77.4609 15.3203C78.4453 15.0391 79.1641 14.7891 79.6172 14.5703V13.4453C79.6172 13.25 79.6016 12.9922 79.5703 12.6719C79.5391 12.3516 79.4727 12.082 79.3711 11.8633C79.2617 11.6133 79.0898 11.4023 78.8555 11.2305C78.6211 11.0586 78.3125 10.9727 77.9297 10.9727C77.5859 10.9727 77.2969 11.0234 77.0625 11.125C76.8359 11.2188 76.6523 11.3164 76.5117 11.418C76.5352 11.5742 76.6016 11.8125 76.7109 12.1328C76.8203 12.4531 76.875 12.7617 76.875 13.0586C76.875 13.1914 76.8398 13.3594 76.7695 13.5625C76.6992 13.7578 76.5977 13.9141 76.4648 14.0312C76.2852 14.1875 76.082 14.3086 75.8555 14.3945C75.6367 14.4805 75.2969 14.5234 74.8359 14.5234C74.1797 14.5234 73.6836 14.3672 73.3477 14.0547C73.0117 13.7344 72.8438 13.3203 72.8438 12.8125C72.8438 12.375 73.0156 11.9844 73.3594 11.6406C73.7109 11.2891 74.1367 11 74.6367 10.7734C75.1289 10.5391 75.6953 10.3594 76.3359 10.2344C76.9766 10.1016 77.5703 10.0352 78.1172 10.0352C78.875 10.0352 79.5703 10.082 80.2031 10.1758C80.8359 10.2617 81.4062 10.4453 81.9141 10.7266C82.3984 11 82.7812 11.3984 83.0625 11.9219C83.3516 12.4375 83.4961 13.1133 83.4961 13.9492C83.4961 14.832 83.4766 15.8789 83.4375 17.0898C83.4062 18.3008 83.3906 19.0977 83.3906 19.4805C83.3906 19.832 83.4414 20.1094 83.543 20.3125C83.6523 20.5156 83.8164 20.668 84.0352 20.7695C84.168 20.832 84.375 20.8711 84.6562 20.8867C84.9453 20.8945 85.207 20.8984 85.4414 20.8984V21.7539ZM79.6172 15.6484C79.1797 15.7969 78.7461 15.9688 78.3164 16.1641C77.8867 16.3516 77.5352 16.5508 77.2617 16.7617C76.9727 16.9805 76.7461 17.2617 76.582 17.6055C76.418 17.9414 76.3359 18.3398 76.3359 18.8008C76.3359 19.4102 76.4727 19.8516 76.7461 20.125C77.0273 20.3984 77.3711 20.5352 77.7773 20.5352C78.207 20.5352 78.5586 20.4492 78.832 20.2773C79.1133 20.0977 79.3594 19.8789 79.5703 19.6211L79.6172 15.6484ZM101.812 22H94.7578V21.1445C94.9062 21.1289 95.0859 21.1094 95.2969 21.0859C95.5078 21.0625 95.668 21.0234 95.7773 20.9688C95.9414 20.8828 96.0586 20.7578 96.1289 20.5938C96.1992 20.4297 96.2344 20.1875 96.2344 19.8672V14.3828C96.2344 13.5859 96.0859 12.9883 95.7891 12.5898C95.5 12.1836 95.0703 11.9805 94.5 11.9805C94.1875 11.9805 93.8945 12.0273 93.6211 12.1211C93.3555 12.2148 93.0938 12.3516 92.8359 12.5312C92.6094 12.6875 92.4258 12.8477 92.2852 13.0117C92.1523 13.1758 92.0391 13.3203 91.9453 13.4453V19.7383C91.9453 20.0117 91.9844 20.2422 92.0625 20.4297C92.1406 20.6094 92.2695 20.7461 92.4492 20.8398C92.5742 20.9102 92.7305 20.9727 92.918 21.0273C93.1055 21.082 93.2891 21.1211 93.4688 21.1445V22H86.3438V21.1445C86.5391 21.1289 86.7344 21.1094 86.9297 21.0859C87.1328 21.0547 87.3047 21.0156 87.4453 20.9688C87.6953 20.8828 87.8672 20.75 87.9609 20.5703C88.0547 20.3906 88.1016 20.1562 88.1016 19.8672V13.0469C88.1016 12.8047 88.0391 12.5664 87.9141 12.332C87.7891 12.0977 87.625 11.9062 87.4219 11.7578C87.2812 11.6641 87.1016 11.5859 86.8828 11.5234C86.6719 11.4609 86.4375 11.418 86.1797 11.3945V10.5391L91.7695 10.2344L91.9453 10.4102V12.1094H91.9922C92.2109 11.9141 92.4766 11.6797 92.7891 11.4062C93.1016 11.1328 93.3906 10.9102 93.6562 10.7383C93.9453 10.5508 94.3242 10.3906 94.793 10.2578C95.2617 10.125 95.7617 10.0586 96.293 10.0586C97.5664 10.0586 98.5195 10.4219 99.1523 11.1484C99.793 11.8672 100.113 12.8242 100.113 14.0195V19.7617C100.113 20.0508 100.156 20.2812 100.242 20.4531C100.328 20.625 100.488 20.7617 100.723 20.8633C100.848 20.918 101 20.9727 101.18 21.0273C101.367 21.082 101.578 21.1211 101.812 21.1445V22ZM117.949 22H112.43C111.75 20.8047 111.129 19.793 110.566 18.9648C110.004 18.1289 109.473 17.3555 108.973 16.6445L108.27 17.2422V19.7969C108.27 20.0781 108.309 20.3086 108.387 20.4883C108.473 20.668 108.633 20.8008 108.867 20.8867C109.008 20.9492 109.172 21.0039 109.359 21.0508C109.547 21.0977 109.734 21.1289 109.922 21.1445V22H102.668V21.1445C102.863 21.1289 103.059 21.1094 103.254 21.0859C103.449 21.0547 103.621 21.0156 103.77 20.9688C104.02 20.8828 104.188 20.75 104.273 20.5703C104.367 20.3906 104.414 20.1562 104.414 19.8672V6.80078C104.414 6.54297 104.355 6.27734 104.238 6.00391C104.129 5.72266 103.965 5.51172 103.746 5.37109C103.598 5.27734 103.375 5.19922 103.078 5.13672C102.781 5.07422 102.512 5.03516 102.27 5.01953V4.16406L108.094 3.85938L108.27 4.04688V16.1406C108.848 15.625 109.496 15.0273 110.215 14.3477C110.941 13.668 111.523 13.1055 111.961 12.6602C112.219 12.3945 112.359 12.1953 112.383 12.0625C112.414 11.9219 112.43 11.8359 112.43 11.8047C112.43 11.6641 112.305 11.5469 112.055 11.4531C111.812 11.3594 111.445 11.2773 110.953 11.207V10.375H116.906V11.1836C116.125 11.4023 115.527 11.6094 115.113 11.8047C114.707 11.9922 114.262 12.2461 113.777 12.5664C113.457 12.7773 113.145 13 112.84 13.2344C112.543 13.4609 112.199 13.7461 111.809 14.0898C112.574 15.1992 113.281 16.2266 113.93 17.1719C114.578 18.1172 115.258 19.1172 115.969 20.1719C116.211 20.5391 116.512 20.7852 116.871 20.9102C117.23 21.0352 117.59 21.1133 117.949 21.1445V22Z" fill="#15140F"/>
<path d="M1.648 39V27.8H2.864L7.168 34.792L6.592 34.776L10.944 27.8H12.08V39H10.832V33.88C10.832 32.92 10.848 32.056 10.88 31.288C10.912 30.52 10.9707 29.7573 11.056 29L11.28 29.448L7.264 35.752H6.4L2.496 29.528L2.672 29C2.75733 29.7147 2.816 30.4507 2.848 31.208C2.88 31.9547 2.896 32.8453 2.896 33.88V39H1.648ZM15.7344 39L20.0224 27.8H21.4464L25.7024 39H24.3424L21.6064 31.736C21.5317 31.5333 21.4464 31.2987 21.3504 31.032C21.265 30.7547 21.169 30.472 21.0624 30.184C20.9664 29.8853 20.8704 29.5973 20.7744 29.32C20.689 29.0427 20.609 28.7973 20.5344 28.584H20.8544C20.769 28.8507 20.6784 29.1227 20.5824 29.4C20.497 29.6667 20.4064 29.9387 20.3104 30.216C20.2144 30.4827 20.1184 30.7493 20.0224 31.016C19.9264 31.2827 19.8304 31.5493 19.7344 31.816L17.0144 39H15.7344ZM17.5584 35.912L18.0224 34.696H23.3184L23.8304 35.912H17.5584ZM28.1 39L32.388 27.8H33.812L38.068 39H36.708L33.972 31.736C33.8973 31.5333 33.812 31.2987 33.716 31.032C33.6307 30.7547 33.5347 30.472 33.428 30.184C33.332 29.8853 33.236 29.5973 33.14 29.32C33.0547 29.0427 32.9747 28.7973 32.9 28.584H33.22C33.1347 28.8507 33.044 29.1227 32.948 29.4C32.8627 29.6667 32.772 29.9387 32.676 30.216C32.58 30.4827 32.484 30.7493 32.388 31.016C32.292 31.2827 32.196 31.5493 32.1 31.816L29.38 39H28.1ZM29.924 35.912L30.388 34.696H35.684L36.196 35.912H29.924ZM44.9776 39.16C44.4123 39.16 43.879 39.08 43.3776 38.92C42.8763 38.76 42.4176 38.52 42.0016 38.2C41.5856 37.88 41.2176 37.4853 40.8976 37.016L41.7616 36.056C42.263 36.7707 42.775 37.272 43.2976 37.56C43.831 37.848 44.4283 37.992 45.0896 37.992C45.5696 37.992 46.007 37.912 46.4016 37.752C46.7963 37.592 47.1056 37.368 47.3296 37.08C47.5536 36.792 47.6656 36.4613 47.6656 36.088C47.6656 35.8427 47.623 35.624 47.5376 35.432C47.463 35.24 47.3456 35.0693 47.1856 34.92C47.0256 34.7707 46.8283 34.6373 46.5936 34.52C46.359 34.4027 46.087 34.296 45.7776 34.2C45.479 34.104 45.143 34.008 44.7696 33.912C44.2256 33.784 43.7456 33.6347 43.3296 33.464C42.9243 33.2827 42.5776 33.064 42.2896 32.808C42.0123 32.552 41.799 32.2587 41.6496 31.928C41.511 31.5867 41.4416 31.1867 41.4416 30.728C41.4416 30.2907 41.5323 29.8853 41.7136 29.512C41.9056 29.1387 42.167 28.8187 42.4976 28.552C42.8283 28.2747 43.2176 28.0613 43.6656 27.912C44.1136 27.7627 44.5936 27.688 45.1056 27.688C45.6816 27.688 46.1936 27.768 46.6416 27.928C47.1003 28.0773 47.5056 28.3013 47.8576 28.6C48.2096 28.8987 48.5136 29.256 48.7696 29.672L47.8896 30.536C47.6656 30.184 47.4096 29.88 47.1216 29.624C46.8443 29.368 46.535 29.176 46.1936 29.048C45.863 28.9093 45.495 28.84 45.0896 28.84C44.6203 28.84 44.2043 28.92 43.8416 29.08C43.4896 29.24 43.2123 29.464 43.0096 29.752C42.807 30.0293 42.7056 30.3493 42.7056 30.712C42.7056 30.9787 42.7536 31.2187 42.8496 31.432C42.9456 31.6347 43.095 31.816 43.2976 31.976C43.511 32.1253 43.783 32.264 44.1136 32.392C44.455 32.5093 44.8603 32.6213 45.3296 32.728C45.8843 32.856 46.3803 33.0107 46.8176 33.192C47.2656 33.3733 47.6443 33.592 47.9536 33.848C48.2736 34.0933 48.5136 34.3813 48.6736 34.712C48.8443 35.0427 48.9296 35.4213 48.9296 35.848C48.9296 36.5093 48.7643 37.0907 48.4336 37.592C48.103 38.0827 47.639 38.4667 47.0416 38.744C46.455 39.0213 45.767 39.16 44.9776 39.16ZM55.08 39V29.016H51.88V27.8H59.656V29.016H56.328V39H55.08ZM63.3668 39V27.8H67.7508C68.4014 27.8 68.9881 27.9547 69.5108 28.264C70.0441 28.5627 70.4654 28.9733 70.7748 29.496C71.0841 30.0187 71.2388 30.6107 71.2388 31.272C71.2388 31.8907 71.0894 32.4507 70.7908 32.952C70.4921 33.4533 70.0868 33.8533 69.5748 34.152C69.0628 34.44 68.4868 34.584 67.8468 34.584H64.6148V39H63.3668ZM70.1988 39L67.3828 34.072L68.5828 33.656L71.6868 39H70.1988ZM64.6148 33.368H67.9588C68.3534 33.368 68.7001 33.2773 68.9988 33.096C69.2974 32.9147 69.5321 32.6693 69.7028 32.36C69.8734 32.04 69.9588 31.6773 69.9588 31.272C69.9588 30.8347 69.8574 30.4453 69.6548 30.104C69.4521 29.7627 69.1694 29.496 68.8068 29.304C68.4548 29.112 68.0494 29.016 67.5908 29.016H64.6148V33.368ZM75.0012 39V37.816H76.8092V28.984H75.0012V27.8H79.8652V28.984H78.0572V37.816H79.8652V39H75.0012ZM88.6442 39.16C87.8442 39.16 87.1082 39.0213 86.4362 38.744C85.7642 38.456 85.1829 38.056 84.6922 37.544C84.2016 37.0213 83.8176 36.408 83.5402 35.704C83.2736 35 83.1402 34.232 83.1402 33.4C83.1402 32.5787 83.2736 31.8267 83.5402 31.144C83.8176 30.4507 84.2069 29.848 84.7082 29.336C85.2096 28.8133 85.7909 28.4133 86.4522 28.136C87.1136 27.8587 87.8389 27.72 88.6282 27.72C89.1509 27.72 89.6682 27.8053 90.1802 27.976C90.6922 28.136 91.1616 28.36 91.5882 28.648C92.0256 28.936 92.3829 29.2667 92.6602 29.64L91.7962 30.536C91.5296 30.216 91.2202 29.9387 90.8682 29.704C90.5269 29.4693 90.1642 29.288 89.7802 29.16C89.3962 29.032 89.0122 28.968 88.6282 28.968C88.0309 28.968 87.4709 29.08 86.9482 29.304C86.4362 29.5173 85.9936 29.8213 85.6202 30.216C85.2469 30.6107 84.9536 31.08 84.7402 31.624C84.5376 32.168 84.4362 32.76 84.4362 33.4C84.4362 34.0613 84.5376 34.6693 84.7402 35.224C84.9536 35.7787 85.2522 36.2587 85.6362 36.664C86.0309 37.0587 86.4896 37.368 87.0122 37.592C87.5456 37.8053 88.1376 37.912 88.7882 37.912C89.1722 37.912 89.5562 37.8587 89.9402 37.752C90.3242 37.6347 90.6762 37.4747 90.9962 37.272C91.3162 37.0693 91.5882 36.84 91.8122 36.584L92.4522 37.624C92.2069 37.9227 91.8762 38.1893 91.4602 38.424C91.0549 38.648 90.6069 38.8293 90.1162 38.968C89.6256 39.096 89.1349 39.16 88.6442 39.16ZM103.905 39V27.8H105.153V39H103.905ZM96.4168 39V27.8H97.6648V39H96.4168ZM97.0248 34.024V32.808H104.433V34.024H97.0248ZM112.08 39V29.016H108.88V27.8H116.656V29.016H113.328V39H112.08Z" fill="#15140F"/>
</svg>
