<svg width="161" height="48" viewBox="0 0 161 48" fill="none" xmlns="http://www.w3.org/2000/svg">
<path d="M160.23 24.6738H152.728C151.804 23.049 150.96 21.6738 150.195 20.5482C149.431 19.4119 148.708 18.3606 148.029 17.3942L147.073 18.2066V21.6791C147.073 22.0614 147.126 22.3747 147.232 22.619C147.349 22.8632 147.567 23.0437 147.885 23.1605C148.077 23.2455 148.3 23.3198 148.554 23.3836C148.809 23.4473 149.064 23.4897 149.319 23.511V24.6738H139.459V23.511C139.724 23.4897 139.99 23.4632 140.255 23.4313C140.521 23.3889 140.754 23.3358 140.956 23.2721C141.296 23.1552 141.524 22.9747 141.641 22.7305C141.769 22.4862 141.832 22.1676 141.832 21.7747V4.01382C141.832 3.66338 141.753 3.30232 141.593 2.93064C141.445 2.54835 141.222 2.26162 140.924 2.07047C140.723 1.94304 140.42 1.83685 140.016 1.75189C139.613 1.66694 139.247 1.61384 138.917 1.5926V0.429781L146.834 0.015625L147.073 0.27049V16.7093C147.859 16.0084 148.74 15.196 149.717 14.2721C150.705 13.3482 151.496 12.5837 152.091 11.9783C152.441 11.6173 152.632 11.3465 152.664 11.166C152.707 10.9748 152.728 10.858 152.728 10.8155C152.728 10.6244 152.558 10.4651 152.218 10.3377C151.889 10.2102 151.39 10.0987 150.721 10.0031V8.87218H158.813V9.97129C157.751 10.2686 156.938 10.55 156.376 10.8155C155.823 11.0704 155.218 11.4155 154.56 11.8509C154.124 12.1376 153.699 12.4403 153.285 12.7589C152.882 13.0668 152.415 13.4544 151.884 13.9217C152.924 15.4296 153.885 16.8261 154.767 18.111C155.648 19.396 156.572 20.7553 157.538 22.1889C157.868 22.688 158.276 23.0225 158.765 23.1924C159.253 23.3623 159.742 23.4685 160.23 23.511V24.6738Z" fill="#FFFAF0"/>
<path d="M138.296 24.6741H128.707V23.5113C128.909 23.49 129.153 23.4635 129.44 23.4316C129.726 23.3998 129.944 23.3467 130.093 23.2723C130.316 23.1555 130.475 22.9856 130.57 22.7626C130.666 22.5396 130.714 22.2104 130.714 21.775V14.3202C130.714 13.237 130.512 12.4246 130.109 11.8831C129.716 11.3309 129.132 11.0547 128.356 11.0547C127.932 11.0547 127.533 11.1185 127.162 11.2459C126.801 11.3733 126.445 11.5592 126.094 11.8034C125.786 12.0158 125.537 12.2335 125.346 12.4565C125.165 12.6795 125.011 12.876 124.884 13.0459V21.5998C124.884 21.9715 124.937 22.2847 125.043 22.5396C125.149 22.7838 125.325 22.9697 125.569 23.0971C125.739 23.1927 125.951 23.2776 126.206 23.352C126.461 23.4263 126.71 23.4794 126.955 23.5113V24.6741H117.27V23.5113C117.535 23.49 117.801 23.4635 118.066 23.4316C118.342 23.3891 118.576 23.3361 118.767 23.2723C119.107 23.1555 119.341 22.975 119.468 22.7307C119.595 22.4865 119.659 22.1679 119.659 21.775V12.5043C119.659 12.1751 119.574 11.8512 119.404 11.5326C119.234 11.214 119.011 10.9539 118.735 10.7521C118.544 10.6247 118.3 10.5185 118.002 10.4335C117.716 10.3486 117.397 10.2902 117.047 10.2583V9.09547L124.645 8.68132L124.884 8.92025V11.23H124.948C125.245 10.9645 125.606 10.6459 126.031 10.2742C126.455 9.90255 126.848 9.59989 127.209 9.36627C127.602 9.1114 128.117 8.89371 128.755 8.71318C129.392 8.53265 130.071 8.44238 130.794 8.44238C132.524 8.44238 133.82 8.93618 134.68 9.92379C135.551 10.9008 135.986 12.2016 135.986 13.8264V21.6316C135.986 22.0246 136.045 22.3378 136.162 22.5715C136.278 22.8051 136.496 22.9909 136.815 23.129C136.985 23.2033 137.192 23.2776 137.436 23.352C137.691 23.4263 137.978 23.4794 138.296 23.5113V24.6741Z" fill="#FFFAF0"/>
<path d="M116.043 24.3392C115.576 24.541 115.024 24.7268 114.387 24.8967C113.749 25.0666 113.075 25.1516 112.364 25.1516C111.057 25.1516 110.096 24.9604 109.48 24.5782C108.864 24.1852 108.445 23.6277 108.222 22.9056H108.126C107.765 23.2667 107.415 23.5746 107.075 23.8295C106.746 24.0844 106.39 24.302 106.008 24.4826C105.509 24.7162 105.026 24.8861 104.558 24.9923C104.102 25.1091 103.459 25.1675 102.631 25.1675C101.399 25.1675 100.348 24.8065 99.477 24.0844C98.6062 23.3516 98.1708 22.3853 98.1708 21.1853C98.1708 20.495 98.2664 19.9109 98.4575 19.4331C98.6486 18.9446 98.9194 18.5145 99.2699 18.1428C99.5885 17.803 99.9548 17.5216 100.369 17.2986C100.794 17.0756 101.256 16.8685 101.755 16.6773C102.711 16.3269 103.857 15.9658 105.195 15.5942C106.534 15.2119 107.511 14.872 108.126 14.5747V13.0455C108.126 12.78 108.105 12.4296 108.063 11.9942C108.02 11.5588 107.93 11.1924 107.792 10.8951C107.643 10.5553 107.41 10.2685 107.091 10.0349C106.772 9.80129 106.353 9.68448 105.833 9.68448C105.365 9.68448 104.972 9.75351 104.654 9.89156C104.346 10.019 104.096 10.1517 103.905 10.2898C103.937 10.5022 104.027 10.8261 104.176 11.2615C104.325 11.6969 104.399 12.1163 104.399 12.5199C104.399 12.7004 104.351 12.9287 104.256 13.2048C104.16 13.4703 104.022 13.6827 103.842 13.842C103.597 14.0544 103.321 14.219 103.013 14.3358C102.716 14.4526 102.254 14.511 101.627 14.511C100.735 14.511 100.061 14.2986 99.6044 13.8738C99.1478 13.4384 98.9194 12.8756 98.9194 12.1853C98.9194 11.5907 99.1531 11.0597 99.6203 10.5924C100.098 10.1146 100.677 9.72165 101.357 9.41369C102.026 9.09511 102.796 8.85086 103.666 8.68095C104.537 8.50042 105.344 8.41016 106.088 8.41016C107.118 8.41016 108.063 8.47387 108.923 8.6013C109.783 8.71812 110.558 8.96767 111.249 9.34997C111.907 9.72165 112.427 10.2632 112.81 10.9747C113.202 11.6756 113.399 12.5942 113.399 13.7305C113.399 14.9305 113.372 16.3534 113.319 17.9994C113.277 19.6455 113.256 20.7286 113.256 21.249C113.256 21.7269 113.325 22.1038 113.463 22.3799C113.611 22.656 113.834 22.8631 114.132 23.0012C114.312 23.0861 114.594 23.1392 114.976 23.1605C115.369 23.1711 115.725 23.1764 116.043 23.1764V24.3392ZM108.126 16.0402C107.532 16.2419 106.942 16.4756 106.358 16.7411C105.774 16.9959 105.296 17.2667 104.925 17.5534C104.532 17.8508 104.224 18.2331 104.001 18.7003C103.778 19.157 103.666 19.6986 103.666 20.3251C103.666 21.1534 103.852 21.7534 104.224 22.1251C104.606 22.4968 105.073 22.6826 105.626 22.6826C106.21 22.6826 106.688 22.5658 107.059 22.3322C107.441 22.0879 107.776 21.7906 108.063 21.4401L108.126 16.0402Z" fill="#FFFAF0"/>
<path d="M95.7814 16.8845C95.7814 19.2739 94.9903 21.2544 93.408 22.826C91.8363 24.3977 89.8399 25.1835 87.4187 25.1835C86.4842 25.1835 85.6771 25.1145 84.9974 24.9765C84.3284 24.849 83.7603 24.6897 83.293 24.4986C82.8045 24.2968 82.4116 24.1004 82.1143 23.9092C81.8276 23.7074 81.5992 23.5428 81.4293 23.4154L79.1515 25.4862L78.2117 25.1198C78.2648 24.3446 78.3072 23.5057 78.3391 22.603C78.3816 21.6898 78.4028 20.4632 78.4028 18.9234V4.01382C78.4028 3.61028 78.3179 3.2386 78.1479 2.89878C77.9887 2.54835 77.771 2.28286 77.4949 2.10233C77.2931 1.9749 76.9957 1.8634 76.6028 1.76782C76.2205 1.67225 75.8648 1.61384 75.5356 1.5926V0.429781L83.4045 0.015625L83.6435 0.27049V10.6244H83.739C84.5143 9.8704 85.3107 9.3182 86.1284 8.96776C86.9461 8.61732 87.7638 8.4421 88.5815 8.4421C90.8116 8.4421 92.5691 9.20138 93.854 10.72C95.1389 12.2385 95.7814 14.2934 95.7814 16.8845ZM90.0629 17.0756C90.0629 16.2686 89.9992 15.4934 89.8717 14.75C89.7549 13.996 89.5532 13.3323 89.2664 12.7589C88.9797 12.1854 88.6027 11.7288 88.1355 11.389C87.6682 11.0385 87.0895 10.8633 86.3992 10.8633C85.7514 10.8633 85.2151 10.9695 84.7904 11.1819C84.3656 11.3943 83.9833 11.7076 83.6435 12.1217V21.3924C83.7072 21.6048 83.824 21.8862 83.9939 22.2367C84.1744 22.5765 84.355 22.842 84.5355 23.0331C84.7904 23.3092 85.0612 23.5216 85.3479 23.6703C85.6346 23.8083 86.0381 23.8774 86.5585 23.8774C87.6417 23.8774 88.4965 23.288 89.1231 22.1092C89.7496 20.9199 90.0629 19.242 90.0629 17.0756Z" fill="#FFFAF0"/>
<path d="M75.7427 24.3393L67.8897 24.8012L67.6507 24.5782V23.1128L67.5392 23.0809C67.0189 23.6437 66.3127 24.1375 65.4207 24.5623C64.5392 24.9765 63.6472 25.1835 62.7446 25.1835C60.5995 25.1835 58.8313 24.3871 57.4402 22.7942C56.0491 21.2013 55.3535 19.1411 55.3535 16.6137C55.3535 14.373 56.1287 12.4509 57.6791 10.8474C59.2402 9.24386 61.1251 8.4421 63.3339 8.4421C64.2047 8.4421 65.0224 8.54298 65.787 8.74475C66.5516 8.9359 67.1622 9.16422 67.6189 9.4297V4.2209C67.6189 3.82798 67.5392 3.46161 67.3799 3.12179C67.2206 2.77135 67.0082 2.50056 66.7428 2.30941C66.4136 2.07578 65.9994 1.91118 65.5003 1.81561C65.0118 1.70941 64.518 1.63508 64.0189 1.5926V0.429781L72.6206 0.015625L72.8595 0.27049V21.1535C72.8595 21.557 72.9232 21.8968 73.0507 22.1729C73.1887 22.4491 73.4064 22.6667 73.7038 22.826C73.9268 22.9429 74.2507 23.0278 74.6754 23.0809C75.1108 23.134 75.4666 23.1659 75.7427 23.1765V24.3393ZM67.6189 21.5039V12.504C67.5445 12.2598 67.4383 11.989 67.3003 11.6916C67.1728 11.3943 66.9923 11.1129 66.7587 10.8474C66.5463 10.6244 66.2596 10.4279 65.8985 10.258C65.5481 10.0881 65.1499 10.0031 64.7038 10.0031C63.6419 10.0031 62.7711 10.6031 62.0915 11.8031C61.4118 13.0031 61.072 14.6969 61.072 16.8845C61.072 17.7447 61.1304 18.5199 61.2472 19.2101C61.3747 19.8898 61.5924 20.511 61.9003 21.0738C62.2083 21.6367 62.6012 22.0774 63.0791 22.396C63.5676 22.7145 64.1516 22.8738 64.8313 22.8738C65.4791 22.8738 66.0153 22.7517 66.4401 22.5075C66.8649 22.2526 67.2578 21.9181 67.6189 21.5039Z" fill="#FFFAF0"/>
<path d="M50.6703 10.7517C51.4562 11.4845 52.0562 12.3606 52.4703 13.38C52.8845 14.3995 53.0915 15.5039 53.0915 16.6933C53.0915 17.872 52.8845 18.9871 52.4703 20.0384C52.0668 21.0791 51.4721 21.9711 50.6863 22.7145C49.8473 23.5109 48.8438 24.1215 47.6757 24.5463C46.5181 24.9711 45.1907 25.1835 43.6934 25.1835C42.3978 25.1835 41.2032 24.9976 40.1094 24.6259C39.0262 24.2543 38.0651 23.6967 37.2262 22.9534C36.4191 22.2419 35.782 21.3658 35.3147 20.3251C34.8475 19.2738 34.6138 18.1003 34.6138 16.8048C34.6138 15.5304 34.8156 14.3995 35.2191 13.4119C35.6333 12.4137 36.2492 11.5269 37.0669 10.7517C37.8527 10.0084 38.8191 9.43493 39.966 9.03139C41.1235 8.61723 42.4138 8.41016 43.8368 8.41016C45.3235 8.41016 46.6297 8.61723 47.7553 9.03139C48.8916 9.43493 49.8633 10.0084 50.6703 10.7517ZM46.5925 21.7906C46.8261 21.1959 46.996 20.4738 47.1022 19.6242C47.219 18.7747 47.2774 17.7871 47.2774 16.6614C47.2774 15.9181 47.2243 15.0685 47.1181 14.1128C47.0119 13.157 46.8527 12.403 46.6403 11.8508C46.3854 11.1818 46.0297 10.6562 45.573 10.2739C45.127 9.89156 44.5589 9.70041 43.8686 9.70041C43.1146 9.70041 42.5093 9.90749 42.0527 10.3216C41.6067 10.7358 41.2616 11.2721 41.0173 11.9305C40.7943 12.5358 40.6403 13.2473 40.5554 14.065C40.4704 14.872 40.4279 15.7163 40.4279 16.5977C40.4279 17.7552 40.4651 18.7163 40.5394 19.4809C40.6138 20.2348 40.7943 20.9941 41.081 21.7587C41.3253 22.4171 41.6757 22.9375 42.1323 23.3198C42.589 23.7021 43.1677 23.8932 43.8686 23.8932C44.5058 23.8932 45.0527 23.718 45.5093 23.3675C45.9659 23.0065 46.327 22.4808 46.5925 21.7906Z" fill="#FFFAF0"/>
<path d="M29.9307 10.7517C30.7165 11.4845 31.3165 12.3606 31.7307 13.38C32.1448 14.3995 32.3519 15.5039 32.3519 16.6933C32.3519 17.872 32.1448 18.9871 31.7307 20.0384C31.3271 21.0791 30.7325 21.9711 29.9466 22.7145C29.1077 23.5109 28.1042 24.1215 26.936 24.5463C25.7785 24.9711 24.4511 25.1835 22.9538 25.1835C21.6582 25.1835 20.4635 24.9976 19.3697 24.6259C18.2866 24.2543 17.3255 23.6967 16.4866 22.9534C15.6795 22.2419 15.0423 21.3658 14.5751 20.3251C14.1078 19.2738 13.8742 18.1003 13.8742 16.8048C13.8742 15.5304 14.076 14.3995 14.4795 13.4119C14.8937 12.4137 15.5096 11.5269 16.3273 10.7517C17.1131 10.0084 18.0795 9.43493 19.2264 9.03139C20.3839 8.61723 21.6741 8.41016 23.0971 8.41016C24.5838 8.41016 25.89 8.61723 27.0157 9.03139C28.152 9.43493 29.1236 10.0084 29.9307 10.7517ZM25.8529 21.7906C26.0865 21.1959 26.2564 20.4738 26.3626 19.6242C26.4794 18.7747 26.5378 17.7871 26.5378 16.6614C26.5378 15.9181 26.4847 15.0685 26.3785 14.1128C26.2723 13.157 26.113 12.403 25.9006 11.8508C25.6458 11.1818 25.29 10.6562 24.8334 10.2739C24.3874 9.89156 23.8192 9.70041 23.129 9.70041C22.375 9.70041 21.7697 9.90749 21.3131 10.3216C20.8671 10.7358 20.5219 11.2721 20.2777 11.9305C20.0547 12.5358 19.9007 13.2473 19.8157 14.065C19.7308 14.872 19.6883 15.7163 19.6883 16.5977C19.6883 17.7552 19.7255 18.7163 19.7998 19.4809C19.8742 20.2348 20.0547 20.9941 20.3414 21.7587C20.5857 22.4171 20.9361 22.9375 21.3927 23.3198C21.8494 23.7021 22.4281 23.8932 23.129 23.8932C23.7662 23.8932 24.3131 23.718 24.7697 23.3675C25.2263 23.0065 25.5874 22.4808 25.8529 21.7906Z" fill="#FFFAF0"/>
<path d="M15.8972 2.70794C15.8972 2.97342 15.8547 3.26546 15.7698 3.58404C15.6848 3.90262 15.5468 4.17341 15.3556 4.39642C15.1326 4.6619 14.883 4.86367 14.6069 5.00172C14.3308 5.13978 13.9167 5.2088 13.3645 5.2088C12.5255 5.2088 11.8671 4.91677 11.3893 4.3327C10.9114 3.74864 10.4017 2.77697 9.86009 1.41769C9.43531 1.59822 9.09018 2.06547 8.8247 2.81944C8.55921 3.57342 8.42647 5.19287 8.42647 7.67781V8.9362H12.8229V10.6565H8.45833V21.6317C8.45833 22.0458 8.5539 22.3697 8.74505 22.6033C8.9362 22.8263 9.18576 22.9909 9.49372 23.0971C9.74858 23.1821 10.0831 23.267 10.4972 23.352C10.9114 23.4263 11.2831 23.4794 11.6123 23.5113V24.6741H0.860169V23.5113C1.13627 23.4901 1.40176 23.4635 1.65662 23.4316C1.92211 23.3998 2.15573 23.3467 2.3575 23.2724C2.69732 23.1449 2.92564 22.9644 3.04245 22.7308C3.16988 22.4865 3.2336 22.1679 3.2336 21.775V10.6565H0V8.9362H3.2336C3.2336 7.79993 3.3982 6.70082 3.7274 5.63889C4.0566 4.56633 4.56633 3.61059 5.25659 2.77166C5.92561 1.94335 6.80702 1.27432 7.90081 0.764595C8.99461 0.254865 10.2796 0 11.7556 0C13.0724 0 14.0919 0.249555 14.814 0.748666C15.5361 1.24778 15.8972 1.90087 15.8972 2.70794Z" fill="#FFFAF0"/>
<path d="M152.252 47.7816V34.2105H147.903V32.5576H158.473V34.2105H153.949V47.7816H152.252Z" fill="#FFFAF0"/>
<path d="M141.14 47.7816V32.5576H142.836V47.7816H141.14ZM130.962 47.7816V32.5576H132.658V47.7816H130.962ZM131.788 41.0178V39.3649H141.858V41.0178H131.788Z" fill="#FFFAF0"/>
<path d="M120.397 47.9994C119.309 47.9994 118.309 47.8109 117.395 47.4339C116.482 47.0424 115.692 46.4987 115.025 45.8028C114.358 45.0923 113.836 44.2586 113.459 43.3017C113.097 42.3448 112.915 41.3008 112.915 40.1699C112.915 39.0535 113.097 38.0313 113.459 37.1034C113.836 36.161 114.365 35.3418 115.047 34.6458C115.728 33.9354 116.518 33.3917 117.417 33.0147C118.316 32.6377 119.302 32.4492 120.375 32.4492C121.085 32.4492 121.789 32.5652 122.485 32.7972C123.181 33.0147 123.819 33.3192 124.398 33.7106C124.993 34.1021 125.479 34.5516 125.856 35.059L124.681 36.277C124.319 35.842 123.898 35.465 123.42 35.146C122.956 34.8271 122.463 34.5806 121.941 34.4066C121.419 34.2326 120.897 34.1456 120.375 34.1456C119.563 34.1456 118.802 34.2978 118.091 34.6023C117.395 34.8923 116.794 35.3055 116.286 35.842C115.779 36.3784 115.38 37.0164 115.09 37.7558C114.815 38.4953 114.677 39.3 114.677 40.1699C114.677 41.0689 114.815 41.8953 115.09 42.6493C115.38 43.4032 115.786 44.0557 116.308 44.6066C116.845 45.1431 117.468 45.5636 118.178 45.868C118.903 46.158 119.708 46.303 120.592 46.303C121.114 46.303 121.636 46.2305 122.158 46.0855C122.68 45.926 123.159 45.7085 123.594 45.4331C124.029 45.1576 124.398 44.8459 124.703 44.4979L125.573 45.9115C125.239 46.3175 124.79 46.68 124.225 46.999C123.674 47.3034 123.065 47.5499 122.398 47.7384C121.731 47.9124 121.064 47.9994 120.397 47.9994Z" fill="#FFFAF0"/>
<path d="M101.852 47.7816V46.1722H104.31V34.167H101.852V32.5576H108.464V34.167H106.006V46.1722H108.464V47.7816H101.852Z" fill="#FFFAF0"/>
<path d="M86.0376 47.7816V32.5576H91.9966C92.8811 32.5576 93.6785 32.7679 94.389 33.1883C95.1139 33.5943 95.6866 34.1525 96.1071 34.863C96.5276 35.5734 96.7378 36.3781 96.7378 37.277C96.7378 38.118 96.5348 38.8792 96.1289 39.5606C95.7229 40.2421 95.1719 40.7858 94.476 41.1918C93.78 41.5832 92.9971 41.779 92.1271 41.779H87.734V47.7816H86.0376ZM95.3242 47.7816L91.4964 41.083L93.1276 40.5176L97.3468 47.7816H95.3242ZM87.734 40.1261H92.2794C92.8158 40.1261 93.2871 40.0028 93.693 39.7564C94.099 39.5099 94.418 39.1764 94.65 38.7559C94.882 38.321 94.9979 37.828 94.9979 37.277C94.9979 36.6826 94.8602 36.1534 94.5847 35.6894C94.3092 35.2254 93.925 34.863 93.432 34.602C92.9536 34.341 92.4026 34.2105 91.7792 34.2105H87.734V40.1261Z" fill="#FFFAF0"/>
<path d="M74.7736 47.7816V34.2105H70.4239V32.5576H80.9936V34.2105H76.4699V47.7816H74.7736Z" fill="#FFFAF0"/>
<path d="M61.0416 47.9999C60.2731 47.9999 59.5482 47.8912 58.8667 47.6737C58.1853 47.4562 57.5618 47.13 56.9964 46.695C56.4309 46.26 55.9307 45.7236 55.4957 45.0856L56.6701 43.7807C57.3516 44.7521 58.0475 45.4336 58.758 45.8251C59.4829 46.2165 60.2949 46.4123 61.1938 46.4123C61.8463 46.4123 62.4407 46.3035 62.9772 46.086C63.5137 45.8686 63.9341 45.5641 64.2386 45.1726C64.5431 44.7811 64.6953 44.3317 64.6953 43.8242C64.6953 43.4907 64.6373 43.1935 64.5213 42.9325C64.4199 42.6715 64.2604 42.4395 64.0429 42.2366C63.8254 42.0336 63.5572 41.8523 63.2382 41.6928C62.9192 41.5334 62.5495 41.3884 62.129 41.2579C61.723 41.1274 61.2663 40.9969 60.7589 40.8664C60.0194 40.6924 59.367 40.4894 58.8015 40.2574C58.2505 40.011 57.7793 39.7137 57.3878 39.3658C57.0109 39.0178 56.7209 38.6191 56.5179 38.1696C56.3294 37.7056 56.2352 37.1619 56.2352 36.5385C56.2352 35.944 56.3584 35.393 56.6049 34.8856C56.8659 34.3781 57.2211 33.9431 57.6706 33.5807C58.12 33.2037 58.6493 32.9137 59.2582 32.7107C59.8672 32.5077 60.5196 32.4062 61.2156 32.4062C61.9985 32.4062 62.6945 32.515 63.3034 32.7325C63.9269 32.9355 64.4778 33.2399 64.9563 33.6459C65.4348 34.0519 65.848 34.5376 66.196 35.1031L64.9998 36.2775C64.6953 35.799 64.3474 35.3858 63.9559 35.0378C63.5789 34.6898 63.1584 34.4289 62.6945 34.2549C62.245 34.0664 61.7448 33.9721 61.1938 33.9721C60.5559 33.9721 59.9904 34.0809 59.4974 34.2984C59.019 34.5159 58.642 34.8203 58.3665 35.2118C58.091 35.5888 57.9533 36.0237 57.9533 36.5167C57.9533 36.8792 58.0186 37.2054 58.149 37.4954C58.2795 37.7709 58.4825 38.0174 58.758 38.2348C59.048 38.4378 59.4177 38.6263 59.8672 38.8003C60.3311 38.9598 60.8821 39.112 61.5201 39.257C62.274 39.431 62.9482 39.6412 63.5427 39.8877C64.1516 40.1342 64.6663 40.4314 65.0868 40.7794C65.5218 41.1129 65.848 41.5044 66.0655 41.9538C66.2975 42.4033 66.4135 42.918 66.4135 43.498C66.4135 44.3969 66.1887 45.1871 65.7393 45.8686C65.2898 46.5355 64.6591 47.0575 63.8471 47.4344C63.0497 47.8114 62.1145 47.9999 61.0416 47.9999Z" fill="#FFFAF0"/>
<path d="M38.1002 47.7816L43.9288 32.5576H45.8644L51.6495 47.7816H49.8009L46.0819 37.9077C45.9804 37.6323 45.8644 37.3133 45.7339 36.9508C45.6179 36.5738 45.4874 36.1896 45.3424 35.7981C45.2119 35.3922 45.0814 35.0007 44.951 34.6237C44.835 34.2467 44.7262 33.9133 44.6247 33.6233H45.0597C44.9437 33.9858 44.8205 34.3555 44.69 34.7325C44.574 35.0949 44.4507 35.4647 44.3203 35.8416C44.1898 36.2041 44.0593 36.5666 43.9288 36.9291C43.7983 37.2915 43.6678 37.654 43.5373 38.0165L39.8401 47.7816H38.1002ZM40.5795 43.5841L41.2102 41.9312H48.409L49.1049 43.5841H40.5795Z" fill="#FFFAF0"/>
<path d="M21.2918 47.7816L27.1204 32.5576H29.056L34.8411 47.7816H32.9925L29.2735 37.9077C29.172 37.6323 29.056 37.3133 28.9256 36.9508C28.8096 36.5738 28.6791 36.1896 28.5341 35.7981C28.4036 35.3922 28.2731 35.0007 28.1426 34.6237C28.0266 34.2467 27.9179 33.9133 27.8164 33.6233H28.2514C28.1354 33.9858 28.0121 34.3555 27.8816 34.7325C27.7656 35.0949 27.6424 35.4647 27.5119 35.8416C27.3814 36.2041 27.2509 36.5666 27.1204 36.9291C26.9899 37.2915 26.8594 37.654 26.729 38.0165L23.0317 47.7816H21.2918ZM23.7712 43.5841L24.4019 41.9312H31.6006L32.2966 43.5841H23.7712Z" fill="#FFFAF0"/>
<path d="M2.14453 47.7816V32.5576H3.79742L9.64775 42.0617L8.86481 42.04L14.7804 32.5576H16.3245V47.7816H14.6282V40.822C14.6282 39.5171 14.6499 38.3427 14.6934 37.2988C14.7369 36.2549 14.8166 35.2182 14.9326 34.1888L15.2371 34.7977L9.77825 43.3666H8.60383L3.2972 34.9065L3.53643 34.1888C3.65243 35.1602 3.73217 36.1606 3.77567 37.19C3.81916 38.205 3.84091 39.4156 3.84091 40.822V47.7816H2.14453Z" fill="#FFFAF0"/>
</svg>
